#define close_term_width 18
#define close_term_height 18
static unsigned char close_term_bits[] = {
   0x00, 0x00, 0x00, 0x00, 0x00, 0x00, 0x00, 0x00, 0x00, 0x30, 0x30, 0x00,
   0x78, 0x78, 0x00, 0xf8, 0x7c, 0x00, 0xf0, 0x3f, 0x00, 0xe0, 0x1f, 0x00,
   0xc0, 0x0f, 0x00, 0xc0, 0x0f, 0x00, 0xe0, 0x1f, 0x00, 0xf0, 0x3f, 0x00,
   0xf8, 0x7c, 0x00, 0x78, 0x78, 0x00, 0x30, 0x30, 0x00, 0x00, 0x00, 0x00,
   0x00, 0x00, 0x00, 0x00, 0x00, 0x00 };
