/* XPM */
static char * close_term_xpm[] = {
"18 18 5 1",
" 	c None",
".	c #D3D3DD",
"+	c #BABABA",
"@	c #888888",
"#	c #FF0006",
"..................",
"..................",
"....++@.....++@...",
"...+##+@...+##+@..",
"..+####+@.+####+@.",
"..+#####++#####+@.",
"...+##########+@..",
"....+########+@...",
".....+######+@....",
".....+######+@....",
"....+########+@...",
"...+##########+@..",
"..+#####++#####+@.",
"..+####+@.+####+@.",
"...+##+@...+##+@..",
"....++@.....++@...",
"..................",
".................."};
