#define close_term_width 18
#define close_term_height 18
static unsigned char close_term_bits[] = {
   0x00, 0x00, 0x00, 0x00, 0x00, 0x00, 0x00, 0x00, 0x00, 0x00, 0x00, 0x00,
   0x20, 0x0c, 0x00, 0x60, 0x1e, 0x00, 0xc0, 0x0e, 0x00, 0xc0, 0x07, 0x00,
   0x80, 0x03, 0x00, 0x80, 0x07, 0x00, 0xc0, 0x0f, 0x00, 0xc0, 0x1e, 0x00,
   0x60, 0x3c, 0x00, 0x20, 0x18, 0x00, 0x00, 0x00, 0x00, 0x00, 0x00, 0x00,
   0x00, 0x00, 0x00, 0x00, 0x00, 0x00 };
