/* XPM */
static char * term_xpm[] = {
"18 18 5 1",
" 	c None",
".	c #D3D3DD s background",
"#	c #888888",
"*	c #BABABA",
"-	c #5555CC",
"..................",
"..................",
"......*****.......",
"......*---*#......",
"......*---*#......",
"......*---*#......",
"..*****---*****#..",
"..*-----------*#..",
"..*-----------*#..",
"..*-----------*#..",
"..*****---*****#..",
"..####*---*#####..",
"......*---*#......",
"......*---*#......",
"......*****#......",
".......####.......",
"..................",
".................."};
