#define term_width 18
#define term_height 18
static unsigned char term_bits[] = {
   0x00, 0x00, 0x00, 0xfe, 0xff, 0x01, 0xfe, 0xff, 0x01, 0xfe, 0xff, 0x01,
   0xfe, 0xff, 0x01, 0x02, 0x00, 0x01, 0x0a, 0x00, 0x01, 0x12, 0x00, 0x01,
   0x12, 0x00, 0x01, 0x0a, 0x00, 0x01, 0x02, 0x00, 0x01, 0x02, 0x00, 0x01,
   0x02, 0x00, 0x01, 0x02, 0x00, 0x01, 0x02, 0x00, 0x01, 0x02, 0x00, 0x01,
   0xfe, 0xff, 0x01, 0x00, 0x00, 0x00 };
