#define term_width 18
#define term_height 18
static unsigned char term_bits[] = {
   0x00, 0x00, 0x00, 0x00, 0x00, 0x00, 0x80, 0x07, 0x00, 0x80, 0x07, 0x00,
   0x80, 0x07, 0x00, 0x80, 0x07, 0x00, 0x80, 0x07, 0x00, 0xfc, 0xff, 0x00,
   0xfc, 0xff, 0x00, 0xfc, 0xff, 0x00, 0xfc, 0xff, 0x00, 0x80, 0x07, 0x00,
   0x80, 0x07, 0x00, 0x80, 0x07, 0x00, 0x80, 0x07, 0x00, 0x80, 0x07, 0x00,
   0x00, 0x00, 0x00, 0x00, 0x00, 0x00 };
